<svg width="226" height="59" viewBox="0 0 226 59" fill="none" xmlns="http://www.w3.org/2000/svg">
<path d="M56.24 30.7991V13.0491H63.665C64.9483 13.0491 66.0567 13.2657 66.99 13.6991C67.9233 14.1324 68.6483 14.7491 69.165 15.5491C69.6817 16.3491 69.94 17.2907 69.94 18.3741C69.94 19.1907 69.765 19.9157 69.415 20.5491C69.065 21.1824 68.59 21.6907 67.99 22.0741C67.4067 22.4574 66.7567 22.6907 66.04 22.7741L65.915 22.5241C67.065 22.5241 67.9483 22.7824 68.565 23.2991C69.1983 23.8157 69.5567 24.6074 69.64 25.6741L70.09 30.7991H66.79L66.415 26.1491C66.365 25.4491 66.14 24.9324 65.74 24.5991C65.34 24.2657 64.6733 24.0991 63.74 24.0991H59.49V30.7991H56.24ZM59.49 21.2491H63.465C64.4483 21.2491 65.215 21.0157 65.765 20.5491C66.315 20.0824 66.59 19.4241 66.59 18.5741C66.59 17.7074 66.3067 17.0407 65.74 16.5741C65.19 16.1074 64.3817 15.8741 63.315 15.8741H59.49V21.2491Z" fill="#0F0F0F"/>
<path d="M79.4763 30.7991V13.0491H91.4263V15.8741H82.7263V20.4991H91.1263V23.2991H82.7263V27.9741H91.6263V30.7991H79.4763Z" fill="#0F0F0F"/>
<path d="M100.857 30.7991V13.0491H104.107V29.7991L102.332 27.9741H112.532V30.7991H100.857Z" fill="#0F0F0F"/>
<path d="M120.553 30.7991V13.0491H132.503V15.8741H123.803V20.4991H132.203V23.2991H123.803V27.9741H132.703V30.7991H120.553Z" fill="#0F0F0F"/>
<path d="M147.078 30.7991L140.653 13.0491H144.078L149.053 27.1741L154.003 13.0491H157.428L150.978 30.7991H147.078Z" fill="#0F0F0F"/>
<path d="M161.57 30.7991L167.97 13.0491H171.945L178.345 30.7991H174.945L173.47 26.5991H166.445L164.97 30.7991H161.57ZM167.395 23.8241H172.52L169.97 16.3241L167.395 23.8241Z" fill="#0F0F0F"/>
<path d="M186.234 30.7991V13.0491H190.034L197.684 26.3991V13.0491H200.934V30.7991H197.034L189.484 17.8241V30.7991H186.234Z" fill="#0F0F0F"/>
<path d="M213.805 30.7991V15.8741H208.405V13.0491H222.43V15.8741H217.055V30.7991H213.805Z" fill="#0F0F0F"/>
<path d="M55 45.7991V39.0541H56.6625L58.5245 44.2791L60.3865 39.0541H62.049V45.7991H60.814V41.1441L59.1135 45.7896H57.9355L56.235 41.1441V45.7991H55Z" fill="#9E8361"/>
<path d="M67.9 45.7991L70.332 39.0541H71.8425L74.2745 45.7991H72.9825L72.422 44.2031H69.7525L69.192 45.7991H67.9ZM70.1135 43.1486H72.061L71.092 40.2986L70.1135 43.1486Z" fill="#9E8361"/>
<path d="M79.9922 45.7991V39.0541H81.4362L84.3432 44.1271V39.0541H85.5782V45.7991H84.0962L81.2272 40.8686V45.7991H79.9922Z" fill="#9E8361"/>
<path d="M91.4264 45.7991L93.8584 39.0541H95.3689L97.8009 45.7991H96.5089L95.9484 44.2031H93.2789L92.7184 45.7991H91.4264ZM93.6399 43.1486H95.5874L94.6184 40.2986L93.6399 43.1486Z" fill="#9E8361"/>
<path d="M106.106 45.9511C105.466 45.9511 104.915 45.8022 104.453 45.5046C103.991 45.2006 103.636 44.7857 103.389 44.2601C103.148 43.7344 103.028 43.1264 103.028 42.4361C103.028 41.7584 103.151 41.1536 103.398 40.6216C103.652 40.0896 104.013 39.6716 104.481 39.3676C104.95 39.0572 105.514 38.9021 106.172 38.9021C106.742 38.9021 107.221 39.0002 107.607 39.1966C108 39.3929 108.313 39.6652 108.547 40.0136C108.782 40.3619 108.946 40.7641 109.041 41.2201L107.749 41.2866C107.68 40.8876 107.521 40.5709 107.274 40.3366C107.034 40.0959 106.67 39.9756 106.182 39.9756C105.751 39.9756 105.397 40.0864 105.118 40.3081C104.846 40.5297 104.64 40.8274 104.5 41.2011C104.367 41.5684 104.301 41.9801 104.301 42.4361C104.301 42.9047 104.367 43.3227 104.5 43.6901C104.633 44.0574 104.839 44.3487 105.118 44.5641C105.403 44.7731 105.761 44.8776 106.191 44.8776C106.527 44.8776 106.815 44.8079 107.056 44.6686C107.297 44.5292 107.487 44.3392 107.626 44.0986C107.765 43.8516 107.841 43.5792 107.854 43.2816H106.191V42.3221H109.06V45.7991H108.262L108.186 44.3171L108.338 44.4121C108.269 44.7161 108.126 44.9852 107.911 45.2196C107.702 45.4476 107.439 45.6281 107.122 45.7611C106.812 45.8877 106.473 45.9511 106.106 45.9511Z" fill="#9E8361"/>
<path d="M115.272 45.7991V39.0541H119.813V40.1276H116.507V41.8851H119.699V42.9491H116.507V44.7256H119.889V45.7991H115.272Z" fill="#9E8361"/>
<path d="M126.071 45.7991V39.0541H127.733L129.595 44.2791L131.457 39.0541H133.12V45.7991H131.885V41.1441L130.184 45.7896H129.006L127.306 41.1441V45.7991H126.071Z" fill="#9E8361"/>
<path d="M139.495 45.7991V39.0541H144.036V40.1276H140.73V41.8851H143.922V42.9491H140.73V44.7256H144.112V45.7991H139.495Z" fill="#9E8361"/>
<path d="M150.274 45.7991V39.0541H151.718L154.625 44.1271V39.0541H155.86V45.7991H154.378L151.509 40.8686V45.7991H150.274Z" fill="#9E8361"/>
<path d="M163.471 45.7991V40.1276H161.419V39.0541H166.749V40.1276H164.706V45.7991H163.471Z" fill="#9E8361"/>
<path d="M190.364 45.7991V44.7351L193.718 40.1276H190.507V39.0541H195.219V40.1181L191.837 44.7256H195.333V45.7991H190.364Z" fill="#9E8361"/>
<path d="M179.304 45.7991V39.0541H183.817V40.1276H179.865L180.539 39.4341V42.5311L179.865 41.9706H183.646V43.0346H179.865L180.539 42.4741V45.7991H179.304Z" fill="#9E8361"/>
<path d="M203.774 45.9511C203.16 45.9511 202.619 45.8117 202.15 45.5331C201.681 45.2481 201.314 44.8459 201.048 44.3266C200.782 43.8009 200.649 43.1707 200.649 42.4361C200.649 41.7141 200.779 41.0902 201.038 40.5646C201.298 40.0326 201.662 39.6241 202.131 39.3391C202.6 39.0477 203.151 38.9021 203.784 38.9021C204.645 38.9021 205.313 39.1174 205.788 39.5481C206.263 39.9724 206.574 40.5677 206.719 41.3341L205.427 41.4006C205.345 40.9572 205.168 40.6089 204.895 40.3556C204.623 40.1022 204.253 39.9756 203.784 39.9756C203.404 39.9756 203.075 40.0769 202.796 40.2796C202.517 40.4822 202.302 40.7672 202.15 41.1346C201.998 41.5019 201.922 41.9357 201.922 42.4361C201.922 42.9427 201.998 43.3797 202.15 43.7471C202.308 44.1081 202.527 44.3867 202.805 44.5831C203.084 44.7794 203.407 44.8776 203.774 44.8776C204.275 44.8776 204.661 44.7414 204.933 44.4691C205.212 44.1904 205.389 43.8104 205.465 43.3291L206.757 43.3956C206.669 43.9212 206.498 44.3772 206.244 44.7636C205.991 45.1436 205.655 45.4381 205.237 45.6471C204.826 45.8497 204.338 45.9511 203.774 45.9511Z" fill="#9E8361"/>
<path d="M215.734 45.9511C215.07 45.9511 214.496 45.8117 214.015 45.5331C213.534 45.2481 213.163 44.8427 212.904 44.3171C212.65 43.7914 212.523 43.1644 212.523 42.4361C212.523 41.7077 212.65 41.0807 212.904 40.5551C213.163 40.0231 213.534 39.6146 214.015 39.3296C214.496 39.0446 215.07 38.9021 215.734 38.9021C216.412 38.9021 216.988 39.0446 217.464 39.3296C217.945 39.6146 218.312 40.0231 218.566 40.5551C218.825 41.0807 218.955 41.7077 218.955 42.4361C218.955 43.1644 218.825 43.7914 218.566 44.3171C218.312 44.8427 217.945 45.2481 217.464 45.5331C216.988 45.8117 216.412 45.9511 215.734 45.9511ZM215.734 44.8776C216.146 44.8776 216.494 44.7826 216.779 44.5926C217.071 44.3962 217.293 44.1176 217.445 43.7566C217.603 43.3892 217.682 42.9491 217.682 42.4361C217.682 41.9231 217.603 41.4829 217.445 41.1156C217.293 40.7482 217.071 40.4664 216.779 40.2701C216.494 40.0737 216.146 39.9756 215.734 39.9756C215.335 39.9756 214.99 40.0737 214.699 40.2701C214.408 40.4664 214.183 40.7482 214.025 41.1156C213.873 41.4829 213.796 41.9231 213.796 42.4361C213.796 42.9491 213.873 43.3892 214.025 43.7566C214.183 44.1176 214.408 44.3962 214.699 44.5926C214.99 44.7826 215.335 44.8776 215.734 44.8776Z" fill="#9E8361"/>
<path d="M30.1869 58.3309C30.1869 55.977 32.0975 54.0676 34.4578 54.0676C34.6415 54.0676 34.8225 54.0791 35 54.1016V59H30.2393C30.2048 58.782 30.1869 58.5585 30.1869 58.3309Z" fill="#9E8361"/>
<path d="M30.1869 0.660866C30.1869 0.436094 30.2045 0.215391 30.238 2.08996e-07L35 0V4.88392C34.8225 4.90627 34.6416 4.91792 34.4578 4.91793C32.0914 4.91788 30.1869 3.00552 30.1869 0.660866Z" fill="#9E8361"/>
<path d="M28.9508 51.7934C29.0872 49.1352 31.1095 46.9763 33.7096 46.6246V52.5028C32.6412 52.6386 31.6614 53.0618 30.8508 53.6926L28.9508 51.7934Z" fill="#9E8361"/>
<path d="M25.5536 36.3394C28.3677 35.6412 30.5134 33.2587 30.8542 30.3195H33.7096V44.4883L25.5536 36.3394Z" fill="#9E8361"/>
<path d="M33.6999 14.552L33.6999 28.7075H30.8577C30.5302 25.7659 28.3964 23.3717 25.589 22.6584L33.6999 14.552Z" fill="#9E8361"/>
<path d="M30.8592 5.30141C31.6652 5.92568 32.6382 6.34496 33.6999 6.48146V12.3597C31.1052 12.0051 29.0945 9.85599 28.9518 7.20719L30.8592 5.30141Z" fill="#9E8361"/>
<path d="M27.6451 8.51255C28.2124 10.9327 30.0338 12.864 32.3863 13.5901L24.4372 21.5347C23.8389 19.1273 22.0076 17.2137 19.6546 16.4965L27.6451 8.51255Z" fill="#9E8361"/>
<path d="M19.6474 42.4953C21.9952 41.784 23.8218 39.8835 24.4291 37.4899L32.3525 45.4071C30.0151 46.143 28.2046 48.072 27.6426 50.4859L19.6474 42.4953Z" fill="#9E8361"/>
<path d="M28.6291 1.41241C28.7647 2.47312 29.1841 3.44485 29.8081 4.25013L27.9038 6.15308C25.2493 6.01199 23.0934 3.99819 22.7392 1.41241L28.6291 1.41241Z" fill="#9E8361"/>
<path d="M22.7373 57.5926C23.0847 55.0014 25.2348 52.9821 27.8891 52.834L29.8016 54.7461C29.1785 55.5536 28.7605 56.5281 28.6272 57.5926H22.7373Z" fill="#9E8361"/>
<path d="M24.1829 24.0635C26.7776 24.2222 28.8725 26.1875 29.2393 28.7075H23.4147C23.2779 27.6837 22.8785 26.7443 22.2864 25.9589L24.1829 24.0635Z" fill="#9E8361"/>
<path d="M22.2663 33.0549C22.8621 32.2749 23.2663 31.3402 23.4093 30.3195H29.2346C28.8527 32.8361 26.7447 34.7887 24.1409 34.9277L22.2663 33.0549Z" fill="#9E8361"/>
<path d="M18.3906 1.41241L21.2444 1.41241C21.5622 4.38644 23.7452 6.79371 26.5918 7.46379L18.3906 15.6583V1.41241Z" fill="#9E8361"/>
<path d="M18.3808 43.331L26.5793 51.5252C23.7323 52.2009 21.5547 54.6144 21.2428 57.5926H18.3808V43.331Z" fill="#9E8361"/>
<path d="M18.3906 17.8601C20.9254 18.2302 22.8875 20.3406 23.0318 22.9395L21.1516 24.8185C20.3632 24.2174 19.4189 23.8116 18.3906 23.6725V17.8601Z" fill="#9E8361"/>
<path d="M18.3808 35.3143C19.4026 35.1779 20.3405 34.7798 21.1249 34.189L23.0293 36.0913C22.8664 38.675 20.9107 40.7666 18.3808 41.1302V35.3143Z" fill="#9E8361"/>
<path d="M12.1501 22.9338C12.297 20.3426 14.2564 18.2366 16.785 17.8616V23.6747C15.7611 23.8162 14.8216 24.2214 14.0372 24.8195L12.1501 22.9338Z" fill="#9E8361"/>
<path d="M8.56969 7.46946C11.4286 6.80722 13.6142 4.39709 13.9359 1.42217L16.785 1.42217L16.785 15.6779L8.56969 7.46946Z" fill="#9E8361"/>
<path d="M16.7753 43.3593V57.6021H13.9422C13.6326 54.6236 11.4559 52.2018 8.60105 51.5268L16.7753 43.3593Z" fill="#9E8361"/>
<path d="M14.0441 34.1752C14.8249 34.7671 15.7584 35.1684 16.7753 35.3099V41.1258C14.2512 40.748 12.3024 38.6502 12.1507 36.0668L14.0441 34.1752Z" fill="#9E8361"/>
<path d="M10.7478 37.4685C11.3505 39.8717 13.1831 41.7808 15.5376 42.4947L7.54148 50.4843C6.97703 48.0619 5.15795 46.1287 2.81089 45.3992L10.7478 37.4685Z" fill="#9E8361"/>
<path d="M2.79929 13.5904C5.14476 12.8668 6.95942 10.9442 7.53145 8.53364L15.5088 16.504C13.1676 17.2264 11.344 19.133 10.7456 21.5306L2.79929 13.5904Z" fill="#9E8361"/>
<path d="M11.7738 30.3098C11.9145 31.3255 12.3149 32.2579 12.9064 33.0379L11.0165 34.9261C8.42674 34.776 6.32271 32.8264 5.94538 30.3098L11.7738 30.3098Z" fill="#9E8361"/>
<path d="M5.9435 28.6978C6.31473 26.1772 8.41405 24.2193 11.004 24.0632L12.9017 25.9598C12.3105 26.7423 11.9106 27.6778 11.7719 28.6978L5.9435 28.6978Z" fill="#9E8361"/>
<path d="M7.29 52.8368C9.95317 52.9824 12.1035 55.0097 12.4483 57.6021H6.55874C6.42647 56.5341 6.00692 55.5555 5.38095 54.7445L7.29 52.8368Z" fill="#9E8361"/>
<path d="M5.36402 4.26714C5.9919 3.46122 6.41376 2.4868 6.55121 1.42217L12.4411 1.42217C12.0826 4.0099 9.92265 6.02483 7.25331 6.15434L5.36402 4.26714Z" fill="#9E8361"/>
<path d="M1.46879 30.3098H4.32608C4.66285 33.2501 6.80554 35.6287 9.60732 36.3341L1.46879 44.466L1.46879 30.3098Z" fill="#9E8361"/>
<path d="M1.45938 14.5261L9.59697 22.6574C6.79405 23.3682 4.65624 25.7551 4.32483 28.6978H1.45938L1.45938 14.5261Z" fill="#9E8361"/>
<path d="M1.46879 46.623C4.0696 46.9694 6.09479 49.1278 6.23356 51.7912L4.33236 53.691C3.52049 53.0591 2.53907 52.6358 1.46879 52.5015L1.46879 46.623Z" fill="#9E8361"/>
<path d="M1.45938 6.48493C2.52482 6.3534 3.50091 5.93739 4.30978 5.31495L6.22823 7.23112C6.07454 9.87943 4.05867 12.0223 1.45938 12.3638L1.45938 6.48493Z" fill="#9E8361"/>
<path d="M2.35656e-06 54.1306C0.238357 54.0893 0.48341 54.0676 0.733455 54.0676C3.08889 54.0676 4.99807 55.9818 4.99808 58.3309C4.99808 58.5586 4.97976 58.782 4.94539 59H2.56855e-06L2.35656e-06 54.1306Z" fill="#9E8361"/>
<path d="M4.9432 1.31916e-06C4.97681 0.215461 4.99462 0.436143 4.99462 0.660867C4.99462 3.00973 3.09575 4.91788 0.730317 4.91793C0.481188 4.91792 0.237206 4.89657 2.114e-07 4.8559L0 1.53611e-06L4.9432 1.31916e-06Z" fill="#9E8361"/>
<circle cx="17.5" cy="29.5" r="4.5" fill="#0F0F0F"/>
</svg>
