<svg width="43" height="64" viewBox="0 0 43 64" fill="none" xmlns="http://www.w3.org/2000/svg">
<path d="M42.3145 64H0V0H42.3145V64ZM36.2002 53.1504C35.234 53.1924 34.3308 53.6497 33.5498 54.2432C33.2066 54.5027 32.8345 54.8694 32.5762 55.2129C31.9938 55.9857 31.6504 56.8827 31.502 57.8311V57.833C31.4557 58.1212 31.4832 58.4228 31.4658 58.7129H32.8545C32.7639 56.3808 34.6034 54.4893 36.958 54.4893V53.1172L36.2002 53.1504ZM10.8057 5.28906H9.41406C9.31957 7.39962 7.49303 9.1274 5.35645 9.07227V10.4463H5.35547L5.35449 10.4443V53.1133L6.07324 53.1465L6.06543 47.6533C8.52036 47.9816 10.3855 49.9957 10.5186 52.4385L8.73242 54.2402C7.94802 53.6475 7.04435 53.1923 6.0752 53.1484L5.3584 53.1152V54.4912C7.66274 54.4838 9.57198 56.4286 9.39844 58.7109H31.4639C31.4812 58.4209 31.4537 58.1211 31.5 57.8311L25.9482 57.8213C26.2801 55.3883 28.3204 53.5428 30.7656 53.4111L32.5742 55.2129C32.8326 54.8694 33.2046 54.5027 33.5479 54.2432L31.7588 52.4473C31.8766 50.0123 33.755 47.9817 36.1982 47.6592V53.1484L36.9561 53.1152V10.4482H36.958V9.08887C34.7866 9.10604 32.9732 7.43791 32.8633 5.28906H31.4736L31.4756 5.29102L31.498 5.78516C31.5442 6.72769 31.9937 7.60812 32.5742 8.37598L30.7754 10.1689C28.3148 10.0335 26.2859 8.1884 25.9502 5.77441L31.4961 5.78027L31.4727 5.28516H10.8057C10.8056 5.2863 10.8058 5.28792 10.8057 5.28906ZM20.4307 57.8252L17.7324 57.8389C17.4412 55.0927 15.4574 52.8538 12.7402 52.1973L20.4307 44.5811V57.8252ZM11.5098 53.4092C13.9589 53.5428 16.0012 55.3827 16.3291 57.8311H10.7871C10.7524 56.8789 10.2932 55.9876 9.70703 55.2109L9.70605 55.209L11.5098 53.4092ZM29.5371 52.1953H29.5391C26.8297 52.8518 24.843 55.0848 24.5479 57.8232L21.8213 57.8213V44.5566L29.5371 52.1953ZM14.7666 39.0732C15.3316 41.3345 16.9748 43.0886 19.2598 43.791H19.2617L11.749 51.2324C11.1956 48.9557 9.51517 47.1938 7.26465 46.5029L14.7666 39.0732ZM34.9883 46.5068C32.7438 47.213 31.0837 48.9597 30.5283 51.2324L23.0127 43.791C25.2632 43.1097 26.9427 41.3503 27.502 39.0928L34.9883 46.5068ZM36.2041 45.7607L28.4707 38.1025C31.184 37.4689 33.1894 35.2318 33.4922 32.4971H36.2041V45.7607ZM8.78516 32.4863C9.08811 35.2227 11.0778 37.4479 13.7852 38.0986L6.06738 45.7412V32.4863H8.78516ZM24.4443 36.0684L26.2803 37.8828C26.1414 40.3007 24.2781 42.3181 21.8213 42.6406L21.8252 37.1328C21.8032 37.1356 21.7808 37.1361 21.7588 37.1387C22.8189 37.0194 23.786 36.599 24.5713 35.9648C24.5288 35.9991 24.4879 36.0353 24.4443 36.0684ZM17.8203 36.0547C18.5787 36.6344 19.4956 37.0191 20.4961 37.1357C20.4718 37.1329 20.4471 37.1321 20.4229 37.1289L20.4287 42.6348C17.9855 42.2989 16.1284 40.2914 15.9951 37.8604L17.8203 36.0547ZM21.3105 37.1699C21.1985 37.1734 21.0866 37.1733 20.9746 37.1699C21.0291 37.1715 21.0838 37.1748 21.1387 37.1748C21.1962 37.1748 21.2535 37.1717 21.3105 37.1699ZM15.7432 32.4453C15.8641 33.4336 16.2556 34.3384 16.8418 35.0869V35.0928L15.0098 36.8887C12.5549 36.7608 10.5182 34.9073 10.1865 32.4951L15.748 32.4912C15.746 32.476 15.745 32.4606 15.7432 32.4453ZM26.5283 32.4932L32.0879 32.5049C31.7427 34.94 29.6951 36.7703 27.2383 36.8887L25.4355 35.0928C25.4116 35.1235 25.385 35.1524 25.3604 35.1826C25.984 34.4222 26.4007 33.49 26.5303 32.4688C26.5293 32.4768 26.5294 32.4851 26.5283 32.4932ZM18.252 28.9863C19.7986 27.4253 22.3213 27.381 23.9238 28.8848C23.9892 28.9457 24.0527 29.0105 24.1143 29.0752C25.6107 30.6821 25.5294 33.1809 23.9307 34.6885V34.6904C22.334 36.1976 19.8101 36.1594 18.2598 34.6025C16.7093 33.0453 16.7074 30.5474 18.252 28.9863ZM25.3096 35.2432C25.1607 35.42 25 35.586 24.8291 35.7422C24.9996 35.5859 25.1604 35.4197 25.3096 35.2432ZM27.2783 26.7051C29.737 26.831 31.7812 28.7091 32.0918 31.125L26.5322 31.1211C26.5324 31.1223 26.5321 31.1238 26.5322 31.125C26.4102 30.1464 26.0233 29.25 25.4443 28.5068L27.2783 26.7051ZM36.2002 31.1123L33.498 31.1191C33.2009 28.3865 31.2355 26.1466 28.5068 25.4863L36.2002 17.8652V31.1123ZM16.834 28.5039C16.2554 29.2459 15.8682 30.1412 15.7451 31.1182L10.1865 31.1133C10.5222 28.667 12.5723 26.8349 15 26.7051L16.834 28.5039ZM13.7715 25.4844C11.065 26.1415 9.08011 28.3745 8.7832 31.1104L6.05762 31.1084V17.8447L13.7715 25.4844ZM21.8408 20.9492C24.311 21.2852 26.156 23.3108 26.2852 25.7344L24.4727 27.54C23.7253 26.9644 22.8227 26.5783 21.8369 26.4531L21.8408 20.9492ZM20.4443 26.4521C19.4584 26.5766 18.5553 26.9621 17.8076 27.5371L15.9951 25.7451C16.1225 23.2911 17.9972 21.2775 20.4443 20.9512V26.4521ZM19.2314 19.7988H19.2295C16.9944 20.4935 15.322 22.24 14.7646 24.5225L7.25195 17.0811C9.51963 16.3882 11.1743 14.6327 11.7412 12.3828L19.2314 19.7988ZM30.5322 12.3604C31.0973 14.6578 32.7885 16.3978 35.0215 17.0791H35.0195L27.5098 24.5146C26.9505 22.2456 25.2904 20.4876 23.0264 19.791L30.5322 12.3604ZM20.4443 19.0547L12.7031 11.3906C15.4049 10.7647 17.4238 8.53141 17.7266 5.78906H20.4443V19.0547ZM24.5459 5.77441C24.8526 8.49949 26.8317 10.7379 29.5527 11.3867L21.833 19.0322V5.78418L24.5459 5.77246V5.77441ZM10.5166 11.165C10.3797 13.5944 8.4991 15.6061 6.06152 15.9229L6.05371 10.4258C7.0083 10.2865 7.91331 9.9437 8.69434 9.375L8.69629 9.37305L10.5166 11.165ZM33.5557 9.35254C34.334 9.9264 35.2398 10.2765 36.1953 10.4199L36.1924 15.9189C33.7259 15.5812 31.8861 13.5509 31.7588 11.1445L33.5508 9.34863C33.5525 9.34988 33.554 9.3513 33.5557 9.35254ZM16.3271 5.78906C15.9781 8.2318 13.9296 10.0507 11.4805 10.1709L9.67871 8.40723C10.2679 7.63668 10.6231 6.73667 10.7695 5.78711V5.78418L16.3271 5.78906Z" fill="#0F0F0F"/>
</svg>
