<svg width="40" height="40" viewBox="0 0 40 40" fill="none" xmlns="http://www.w3.org/2000/svg">
<path d="M31 10C32.8856 10 33.8283 10.0002 34.4141 10.5859C34.9998 11.1717 35 12.1144 35 14V26C35 27.8856 34.9998 28.8283 34.4141 29.4141C33.8283 29.9998 32.8856 30 31 30H9C7.11438 30 6.17172 29.9998 5.58594 29.4141C5.00015 28.8283 5 27.8856 5 26V14C5 12.1144 5.00015 11.1717 5.58594 10.5859C6.17172 10.0002 7.11438 10 9 10H31ZM20 15C17.2386 15 15 17.2386 15 20C15 22.7614 17.2386 25 20 25C22.7614 25 25 22.7614 25 20C25 17.2386 22.7614 15 20 15Z" fill="#D9B78C"/>
<rect x="5" y="10" width="30" height="20" rx="2" stroke="#9E8361" stroke-width="1.2"/>
<path d="M10 15H13.3333" stroke="#9E8361" stroke-width="1.2" stroke-linecap="round"/>
<path d="M26.6667 25H30" stroke="#9E8361" stroke-width="1.2" stroke-linecap="round"/>
<circle cx="20" cy="20" r="4.4" stroke="#9E8361" stroke-width="1.2"/>
</svg>
