<svg width="40" height="40" viewBox="0 0 40 40" fill="none" xmlns="http://www.w3.org/2000/svg">
<path d="M19.3694 6.28386C19.7719 6.11138 20.2277 6.11141 20.6302 6.28386L31.2112 10.819C31.8666 11.0999 32.2567 11.7804 32.1683 12.488L30.889 22.7253C30.6814 24.3858 29.8503 25.9049 28.5648 26.9762L21.0247 33.2604C20.4314 33.7549 19.5692 33.7549 18.9759 33.2604L11.4349 26.9762C10.1494 25.9049 9.31826 24.3857 9.11066 22.7253L7.83136 12.488C7.74293 11.7805 8.1332 11.1 8.78839 10.819L19.3694 6.28386Z" fill="#D9B78C" stroke="#9E8361" stroke-width="1.2" stroke-linecap="round"/>
<path d="M15 20L19.5688 24.5687C19.7919 24.7918 20.1633 24.7551 20.3383 24.4925L26.6667 15" stroke="#9E8361" stroke-width="1.2" stroke-linecap="round"/>
</svg>
