<svg width="40" height="40" viewBox="0 0 40 40" fill="none" xmlns="http://www.w3.org/2000/svg">
<path d="M19.3064 7.7535C21.3615 7.63719 23.4186 8.03935 25.2849 8.93026C27.4243 9.95162 29.2224 11.5718 30.4607 13.5933C31.6988 15.6148 32.3245 17.9522 32.2625 20.3219C32.2003 22.6915 31.4534 24.993 30.1111 26.9469C28.7686 28.9007 26.8878 30.4237 24.698 31.3316C22.508 32.2395 20.1015 32.493 17.7703 32.0621C15.4391 31.6311 13.2829 30.5338 11.5623 28.9029C10.5303 27.9248 9.68347 26.7791 9.04956 25.5221L10.2332 25.2047C10.7911 26.2522 11.5173 27.208 12.3875 28.0328C13.9398 29.504 15.8859 30.4936 17.989 30.8824C20.0919 31.271 22.2625 31.0421 24.238 30.2232C26.2137 29.4041 27.9107 28.0299 29.1218 26.2672C30.3327 24.5046 31.0071 22.4284 31.0632 20.2906C31.1192 18.1526 30.5544 16.0431 29.4373 14.2193C28.3201 12.3957 26.6982 10.9347 24.7683 10.0133C23.1603 9.24561 21.3952 8.88181 19.6248 8.94197L19.3064 7.7535Z" fill="#9E8361"/>
<path d="M15.9452 4.86716C15.8218 4.40669 15.7601 4.17646 15.57 4.07415C15.3798 3.97183 15.1628 4.04418 14.7288 4.18887C12.9735 4.77406 11.3256 5.64824 9.85402 6.77744C8.11761 8.10983 6.66063 9.77119 5.56628 11.6667C4.47193 13.5621 3.76164 15.6546 3.47596 17.8246C3.23384 19.6636 3.30073 21.5278 3.67158 23.3405C3.76327 23.7887 3.80912 24.0128 3.99282 24.1264C4.17651 24.2399 4.40674 24.1782 4.8672 24.0548L19.0341 20.2588C19.4895 20.1368 19.7171 20.0758 19.8207 19.8964C19.9242 19.7171 19.8632 19.4894 19.7412 19.0341L15.9452 4.86716Z" fill="#D9B78C" stroke="#9E8361" stroke-width="1.2"/>
</svg>
